# Blender v2.79 (sub 0) OBJ File: 'Rock5.blend'
# www.blender.org
mtllib Rock5.mtl
o LowPolyRock
v -0.215919 -0.384048 0.639680
v 0.871639 -0.274494 0.231808
v 1.025928 -0.162185 -0.289174
v 0.724602 -0.107376 0.402890
v 0.125387 0.676564 0.360478
v 0.296893 0.712189 -0.085784
v -0.599097 0.515814 0.253958
v -0.923147 0.336044 -0.131231
v 0.849180 0.493107 -0.134943
v 1.083196 0.351864 -0.116500
v -0.004706 0.552523 -0.457690
v 0.025196 0.427209 -0.568691
v -0.753457 0.423783 -0.253471
v -0.819766 0.465810 -0.074492
v -0.944726 0.517465 0.124578
v -0.875533 0.432868 -0.091902
v -0.981934 0.176817 0.244898
v -0.121093 0.657499 0.492371
v 0.019391 0.640494 0.595105
v 0.035337 0.500329 0.666665
v 0.290893 0.720613 0.042791
v 1.019134 0.451087 -0.074190
v -0.349692 0.081629 -0.683310
v -0.374430 0.003160 -0.685690
v -0.590834 0.064778 -0.612805
v -0.596714 -0.031833 -0.623992
v -1.111255 0.016799 0.006977
v -1.104315 -0.019909 0.101500
v 0.882992 0.086721 0.290145
v 1.109048 0.133961 0.066698
v 0.723997 -0.344281 -0.442630
v 1.170431 0.051535 -0.031982
v 1.186456 -0.081254 -0.028501
v 1.170407 -0.083849 -0.107238
v 1.185517 -0.127398 -0.069034
v 1.087571 -0.137086 -0.205330
v 0.637843 -0.413116 -0.406269
v -0.844386 -0.289304 -0.305685
v -0.777003 -0.422466 -0.117662
v -0.997066 -0.177528 0.196829
v 0.584941 -0.582615 0.059071
v 0.207517 -0.636269 0.140655
v 0.723997 -0.344281 -0.442630
v 0.723997 -0.344281 -0.442630
v 1.025928 -0.162185 -0.289174
v 1.025928 -0.162185 -0.289174
v 1.087571 -0.137086 -0.205330
v 1.087571 -0.137086 -0.205330
v 1.019134 0.451087 -0.074190
v 1.019134 0.451087 -0.074190
v 1.019134 0.451087 -0.074190
v 1.019134 0.451087 -0.074190
v 0.849180 0.493107 -0.134943
v 0.849180 0.493107 -0.134943
v 0.296893 0.712189 -0.085784
v 0.296893 0.712189 -0.085784
v 1.083196 0.351864 -0.116500
v 1.083196 0.351864 -0.116500
v 0.025196 0.427209 -0.568691
v 0.025196 0.427209 -0.568691
v -0.004706 0.552523 -0.457690
v -0.004706 0.552523 -0.457690
v -0.753457 0.423783 -0.253471
v -0.753457 0.423783 -0.253471
v -0.753457 0.423783 -0.253471
v -0.923147 0.336044 -0.131231
v -0.923147 0.336044 -0.131231
v -0.875533 0.432868 -0.091902
v -0.875533 0.432868 -0.091902
v -0.944726 0.517465 0.124578
v -0.944726 0.517465 0.124578
v -0.944726 0.517465 0.124578
v -0.819766 0.465810 -0.074492
v -0.819766 0.465810 -0.074492
v -0.599097 0.515814 0.253958
v -0.981934 0.176817 0.244898
v -0.981934 0.176817 0.244898
v 0.125387 0.676564 0.360478
v 0.125387 0.676564 0.360478
v -0.121093 0.657499 0.492371
v -0.121093 0.657499 0.492371
v 0.019391 0.640494 0.595105
v 0.019391 0.640494 0.595105
v 0.019391 0.640494 0.595105
v 0.035337 0.500329 0.666665
v 0.035337 0.500329 0.666665
v 0.035337 0.500329 0.666665
v 0.290893 0.720613 0.042791
v 0.290893 0.720613 0.042791
v 1.170431 0.051535 -0.031982
v 1.170431 0.051535 -0.031982
v -0.374430 0.003160 -0.685690
v -0.374430 0.003160 -0.685690
v -0.374430 0.003160 -0.685690
v -0.349692 0.081629 -0.683310
v -0.349692 0.081629 -0.683310
v -0.590834 0.064778 -0.612805
v -0.590834 0.064778 -0.612805
v -0.596714 -0.031833 -0.623992
v -0.596714 -0.031833 -0.623992
v -1.111255 0.016799 0.006977
v -1.111255 0.016799 0.006977
v -1.104315 -0.019909 0.101500
v -1.104315 -0.019909 0.101500
v 1.109048 0.133961 0.066698
v 1.109048 0.133961 0.066698
v 0.724602 -0.107376 0.402890
v 0.724602 -0.107376 0.402890
v 0.882992 0.086721 0.290145
v 0.882992 0.086721 0.290145
v -0.844386 -0.289304 -0.305685
v -0.844386 -0.289304 -0.305685
v -0.997066 -0.177528 0.196829
v -0.997066 -0.177528 0.196829
v 0.871639 -0.274494 0.231808
v 0.871639 -0.274494 0.231808
v -0.215919 -0.384048 0.639680
v -0.215919 -0.384048 0.639680
v -0.215919 -0.384048 0.639680
v 1.185517 -0.127398 -0.069034
v 1.185517 -0.127398 -0.069034
v 1.185517 -0.127398 -0.069034
v 1.186456 -0.081254 -0.028501
v 1.186456 -0.081254 -0.028501
v 1.170407 -0.083849 -0.107238
v 1.170407 -0.083849 -0.107238
v 0.637843 -0.413116 -0.406269
v 0.637843 -0.413116 -0.406269
v -0.777003 -0.422466 -0.117662
v -0.777003 -0.422466 -0.117662
v 0.207517 -0.636269 0.140655
v 0.207517 -0.636269 0.140655
v 0.584941 -0.582615 0.059071
v 0.584941 -0.582615 0.059071
vt 0.401139 0.426844
vt 0.394291 0.530997
vt 0.350479 0.562599
vt 0.252061 0.502046
vt 0.374306 0.410833
vt 0.462656 0.262911
vt 0.488556 0.229819
vt 0.514371 0.236066
vt 0.612208 0.305159
vt 0.617374 0.398212
vt 0.401865 0.547958
vt 0.394291 0.530997
vt 0.401139 0.426844
vt 0.103999 0.770150
vt 0.120623 0.817432
vt 0.041818 0.872282
vt 0.003211 0.841877
vt 0.000107 0.818651
vt 0.462656 0.262911
vt 0.401139 0.426844
vt 0.374306 0.410833
vt 0.363193 0.318268
vt 0.422523 0.793528
vt 0.447145 0.789669
vt 0.515969 0.835226
vt 0.526624 0.855582
vt 0.539276 0.889376
vt 0.454164 0.938984
vt 0.380057 0.882675
vt 0.429681 0.999893
vt 0.203056 0.999893
vt 0.305603 0.893939
vt 0.380057 0.882675
vt 0.454164 0.938984
vt 0.252061 0.502046
vt 0.212378 0.530858
vt 0.211110 0.491097
vt 0.212378 0.530858
vt 0.206414 0.505722
vt 0.211110 0.491097
vt 0.612208 0.305159
vt 0.514371 0.236066
vt 0.578333 0.223332
vt 0.608016 0.244584
vt 0.612494 0.278499
vt 0.082038 0.444918
vt 0.216405 0.264613
vt 0.239853 0.281956
vt 0.236384 0.310351
vt 0.189011 0.408109
vt 0.156500 0.483003
vt 0.236384 0.310351
vt 0.239853 0.281956
vt 0.279959 0.291558
vt 0.427231 0.142037
vt 0.344029 0.302763
vt 0.279959 0.291558
vt 0.239853 0.281956
vt 0.401865 0.547958
vt 0.617374 0.398212
vt 0.620923 0.423848
vt 0.344029 0.302763
vt 0.488556 0.229819
vt 0.462656 0.262911
vt 0.363193 0.318268
vt 0.305603 0.893939
vt 0.203056 0.999893
vt 0.041818 0.872282
vt 0.120623 0.817432
vt 0.000107 0.425529
vt 0.040821 0.201589
vt 0.216405 0.264613
vt 0.082038 0.444918
vt 0.024786 0.472054
vt 0.189011 0.408109
vt 0.236384 0.310351
vt 0.279959 0.291558
vt 0.344029 0.302763
vt 0.363193 0.318268
vt 0.374306 0.410833
vt 0.252061 0.502046
vt 0.211110 0.491097
vt 0.206414 0.505722
vt 0.156500 0.483003
vt 0.401865 0.547958
vt 0.358605 0.583752
vt 0.350479 0.562599
vt 0.394291 0.530997
vt 0.170368 0.609581
vt 0.156500 0.483003
vt 0.206414 0.505722
vt 0.212378 0.530858
vt 0.252061 0.502046
vt 0.350479 0.562599
vt 0.358605 0.583752
vt 0.278136 0.662507
vt 0.255581 0.083274
vt 0.314844 0.096126
vt 0.216405 0.264613
vt 0.040821 0.201589
vt 0.620923 0.237320
vt 0.612494 0.278499
vt 0.608016 0.244584
vt 0.213307 0.662720
vt 0.422523 0.793528
vt 0.380057 0.882675
vt 0.305603 0.893939
vt 0.120623 0.817432
vt 0.103999 0.770150
vt 0.160337 0.678073
vt 0.082038 0.444918
vt 0.156500 0.483003
vt 0.029552 0.496330
vt 0.024786 0.472054
vt 0.610859 0.224893
vt 0.620923 0.237320
vt 0.608016 0.244584
vt 0.578333 0.223332
vt 0.578333 0.223332
vt 0.514371 0.236066
vt 0.488556 0.229819
vt 0.558217 0.196522
vt 0.610859 0.224893
vt 0.278413 0.023064
vt 0.381919 0.000107
vt 0.382429 0.014286
vt 0.382549 0.071195
vt 0.314844 0.096126
vt 0.255581 0.083274
vt 0.382549 0.071195
vt 0.427231 0.142037
vt 0.239853 0.281956
vt 0.216405 0.264613
vt 0.314844 0.096126
vn -0.2973 0.5922 -0.7489
vn 0.3344 0.1937 -0.9223
vn -0.8034 -0.5832 -0.1198
vn 0.2788 0.7501 -0.5996
vn 0.5986 -0.7960 -0.0894
vn 0.3111 -0.6523 0.6911
vn -0.6290 0.6720 -0.3908
vn 0.0955 0.3339 -0.9377
vn 0.8060 0.1402 -0.5751
vn -0.4454 0.4348 0.7826
vn 0.0064 0.9879 0.1548
vn 0.3714 0.8753 0.3095
vn 0.0336 -0.4994 -0.8657
vn 0.3390 0.9320 -0.1282
vn -0.3289 -0.8990 0.2892
vn -0.4489 0.0345 0.8929
vn -0.2035 0.9704 -0.1299
vn -0.2850 0.1235 -0.9505
vn -0.7828 0.1814 -0.5952
vn 0.3209 -0.0466 0.9460
vn 0.8004 -0.2136 -0.5600
vn -0.0824 -0.8329 -0.5471
vn -0.9111 0.2567 0.3226
vn 0.9715 0.1238 -0.2021
vn 0.8839 0.3246 0.3366
vn 0.6941 -0.1482 0.7044
vn 0.5496 0.4686 0.6916
usemtl None
s 1
f 59/1/1 96/2/1 97/3/1 63/4/1 61/5/1
f 53/6/2 49/7/2 57/8/2 45/9/2 43/10/2 92/11/2 95/12/2 60/13/2
f 111/14/3 129/15/3 113/16/3 103/17/3 102/18/3
f 54/19/4 12/20/4 62/21/4 55/22/4
f 127/23/5 44/24/5 46/25/5 47/26/5 120/27/5 116/28/5 133/29/5
f 108/30/6 118/31/6 132/32/6 134/33/6 115/34/6
f 64/35/7 67/36/7 73/37/7
f 66/38/8 68/39/8 74/40/8
f 3/41/9 58/42/9 90/43/9 125/44/9 48/45/9
f 76/46/10 85/47/10 82/48/10 81/49/10 75/50/10 71/51/10
f 80/52/11 83/53/11 78/54/11
f 50/55/12 89/56/12 79/57/12 84/58/12
f 94/59/13 31/60/13 128/61/13
f 88/62/14 52/63/14 9/64/14 56/65/14
f 131/66/15 119/67/15 114/68/15 130/69/15
f 40/70/16 117/71/16 87/72/16 77/73/16 104/74/16
f 7/75/17 18/76/17 5/77/17 21/78/17 6/79/17 11/80/17 65/81/17 14/82/17 69/83/17 70/84/17
f 93/85/18 99/86/18 98/87/18 23/88/18
f 101/89/19 72/90/19 16/91/19 8/92/19 13/93/19 25/94/19 100/95/19 112/96/19
f 107/97/20 109/98/20 86/99/20 1/100/20
f 122/101/21 36/102/21 126/103/21
f 24/104/22 37/105/22 41/106/22 42/107/22 39/108/22 38/109/22 26/110/22
f 17/111/23 15/112/23 27/113/23 28/114/23
f 124/115/24 121/116/24 34/117/24 91/118/24
f 32/119/25 10/120/25 51/121/25 105/122/25 123/123/25
f 2/124/26 35/125/26 33/126/26 106/127/26 110/128/26 4/129/26
f 30/130/27 22/131/27 19/132/27 20/133/27 29/134/27
