# Blender v2.79 (sub 0) OBJ File: 'Rock2.blend'
# www.blender.org
mtllib Rock2.mtl
o LowPolyRock
v 0.525642 0.172347 -0.118485
v -0.141071 -0.463565 0.885593
v 0.473384 -0.386314 -0.443865
v 0.399869 -0.118650 0.585211
v -0.187607 -0.234264 1.072595
v -0.240717 -0.229762 1.064423
v -0.454143 0.001615 -0.884759
v -0.532890 -0.321367 -0.101166
v -0.056180 -0.020619 -1.265056
v 0.084739 0.123886 -1.222589
v 0.230045 0.732001 -0.106048
v -0.233469 0.669856 0.554832
v 0.430038 0.445772 -0.235614
v 0.544510 0.116377 -0.153886
v -0.034578 0.599045 -0.585042
v -0.414427 0.425065 -0.343833
v -0.499040 0.434919 0.105139
v -0.039095 0.691360 0.926442
v 0.143252 0.676809 0.798787
v -0.105418 0.624779 0.941631
v -0.008465 0.630269 0.983299
v 0.176471 0.754682 0.222800
v 0.264115 0.723999 -0.049991
v 0.243154 0.693598 0.689053
v 0.417707 0.346252 0.519971
v 0.039212 0.353675 -1.117088
v -0.007324 0.263871 -1.190738
v 0.036282 0.235331 -1.212338
v -0.231263 -0.008796 -1.162395
v -0.301232 0.049549 -1.134454
v -0.224578 -0.209963 -0.948840
v -0.376608 -0.003706 -1.077219
v -0.590971 -0.182906 0.110684
v 0.033563 0.053085 1.052996
v 0.041642 -0.046434 -1.235039
v 0.022400 -0.268977 -1.145100
v -0.015718 -0.311017 -1.101842
v 0.536585 -0.363773 0.051612
v 0.619872 -0.226911 -0.212866
v 0.555117 -0.289272 -0.337706
v 0.090013 -0.408368 -0.911656
v -0.118825 -0.610790 -0.067902
v -0.261976 -0.563141 0.000456
v -0.305952 -0.414446 0.870695
v -0.239454 -0.444884 0.892889
v 0.449014 -0.536524 0.028573
v 0.156388 -0.660668 0.202466
v -0.187607 -0.234264 1.072595
v -0.187607 -0.234264 1.072595
v -0.141071 -0.463565 0.885593
v -0.141071 -0.463565 0.885593
v -0.240717 -0.229762 1.064423
v -0.240717 -0.229762 1.064423
v -0.240717 -0.229762 1.064423
v 0.264115 0.723999 -0.049991
v 0.264115 0.723999 -0.049991
v 0.264115 0.723999 -0.049991
v 0.430038 0.445772 -0.235614
v 0.430038 0.445772 -0.235614
v 0.525642 0.172347 -0.118485
v 0.544510 0.116377 -0.153886
v 0.544510 0.116377 -0.153886
v 0.230045 0.732001 -0.106048
v 0.230045 0.732001 -0.106048
v -0.034578 0.599045 -0.585042
v -0.034578 0.599045 -0.585042
v 0.039212 0.353675 -1.117088
v 0.039212 0.353675 -1.117088
v 0.039212 0.353675 -1.117088
v -0.414427 0.425065 -0.343833
v -0.414427 0.425065 -0.343833
v -0.499040 0.434919 0.105139
v -0.499040 0.434919 0.105139
v -0.233469 0.669856 0.554832
v -0.233469 0.669856 0.554832
v -0.039095 0.691360 0.926442
v -0.039095 0.691360 0.926442
v -0.039095 0.691360 0.926442
v -0.039095 0.691360 0.926442
v 0.143252 0.676809 0.798787
v 0.143252 0.676809 0.798787
v -0.105418 0.624779 0.941631
v -0.105418 0.624779 0.941631
v -0.008465 0.630269 0.983299
v -0.008465 0.630269 0.983299
v 0.033563 0.053085 1.052996
v 0.033563 0.053085 1.052996
v 0.176471 0.754682 0.222800
v 0.176471 0.754682 0.222800
v 0.243154 0.693598 0.689053
v 0.243154 0.693598 0.689053
v 0.243154 0.693598 0.689053
v 0.243154 0.693598 0.689053
v 0.417707 0.346252 0.519971
v 0.417707 0.346252 0.519971
v 0.036282 0.235331 -1.212338
v 0.036282 0.235331 -1.212338
v 0.036282 0.235331 -1.212338
v -0.007324 0.263871 -1.190738
v -0.007324 0.263871 -1.190738
v 0.084739 0.123886 -1.222589
v 0.084739 0.123886 -1.222589
v -0.301232 0.049549 -1.134454
v -0.301232 0.049549 -1.134454
v -0.301232 0.049549 -1.134454
v -0.301232 0.049549 -1.134454
v -0.231263 -0.008796 -1.162395
v -0.231263 -0.008796 -1.162395
v -0.376608 -0.003706 -1.077219
v -0.376608 -0.003706 -1.077219
v -0.376608 -0.003706 -1.077219
v -0.224578 -0.209963 -0.948840
v -0.224578 -0.209963 -0.948840
v -0.056180 -0.020619 -1.265056
v -0.056180 -0.020619 -1.265056
v -0.056180 -0.020619 -1.265056
v -0.454143 0.001615 -0.884759
v -0.454143 0.001615 -0.884759
v -0.532890 -0.321367 -0.101166
v -0.532890 -0.321367 -0.101166
v -0.590971 -0.182906 0.110684
v -0.590971 -0.182906 0.110684
v -0.590971 -0.182906 0.110684
v 0.399869 -0.118650 0.585211
v 0.399869 -0.118650 0.585211
v 0.041642 -0.046434 -1.235039
v 0.041642 -0.046434 -1.235039
v 0.555117 -0.289272 -0.337706
v 0.555117 -0.289272 -0.337706
v 0.022400 -0.268977 -1.145100
v 0.022400 -0.268977 -1.145100
v 0.022400 -0.268977 -1.145100
v -0.015718 -0.311017 -1.101842
v -0.015718 -0.311017 -1.101842
v 0.090013 -0.408368 -0.911656
v 0.090013 -0.408368 -0.911656
v 0.090013 -0.408368 -0.911656
v -0.305952 -0.414446 0.870695
v -0.305952 -0.414446 0.870695
v -0.305952 -0.414446 0.870695
v -0.239454 -0.444884 0.892889
v -0.239454 -0.444884 0.892889
v 0.536585 -0.363773 0.051612
v 0.536585 -0.363773 0.051612
v 0.619872 -0.226911 -0.212866
v 0.619872 -0.226911 -0.212866
v 0.473384 -0.386314 -0.443865
v 0.473384 -0.386314 -0.443865
v -0.118825 -0.610790 -0.067902
v -0.118825 -0.610790 -0.067902
v 0.156388 -0.660668 0.202466
v 0.156388 -0.660668 0.202466
v -0.261976 -0.563141 0.000456
v -0.261976 -0.563141 0.000456
v 0.449014 -0.536524 0.028573
v 0.449014 -0.536524 0.028573
vt 0.518336 0.899976
vt 0.569018 0.838438
vt 0.596380 0.876274
vt 0.629956 0.921573
vt 0.569863 0.973681
vt 0.550433 0.969924
vt 0.017627 0.808442
vt 0.250273 0.758859
vt 0.294677 0.814608
vt 0.242650 0.897639
vt 0.861649 0.365890
vt 0.842595 0.437130
vt 0.808806 0.473605
vt 0.605249 0.261526
vt 0.646656 0.245987
vt 0.818418 0.285626
vt 0.783046 0.719512
vt 0.725452 0.745237
vt 0.747326 0.713814
vt 0.519247 0.401915
vt 0.464873 0.440059
vt 0.362807 0.399397
vt 0.389847 0.341047
vt 0.519913 0.337589
vt 0.531806 0.328785
vt 0.362807 0.399397
vt 0.464873 0.440059
vt 0.417543 0.436791
vt 0.322416 0.410203
vt 0.316799 0.400245
vt 0.345471 0.400831
vt 0.310078 0.414304
vt 0.053618 0.399221
vt 0.055610 0.381349
vt 0.181514 0.323246
vt 0.316799 0.400245
vt 0.322416 0.410203
vt 0.417543 0.436791
vt 0.464873 0.440059
vt 0.471895 0.449464
vt 0.000120 0.854372
vt 0.006294 0.826746
vt 0.017627 0.808442
vt 0.242650 0.897639
vt 0.253342 0.941537
vt 0.161651 0.999880
vt 0.550433 0.969924
vt 0.491970 0.999880
vt 0.253342 0.941537
vt 0.242650 0.897639
vt 0.294677 0.814608
vt 0.518336 0.899976
vt 0.842595 0.437130
vt 0.869467 0.457262
vt 0.801285 0.509873
vt 0.808806 0.473605
vt 0.519247 0.401915
vt 0.531806 0.328785
vt 0.568986 0.266734
vt 0.605249 0.261526
vt 0.808806 0.473605
vt 0.801285 0.509873
vt 0.760962 0.538533
vt 0.810142 0.575983
vt 0.788440 0.580782
vt 0.760962 0.538533
vt 0.474465 0.614649
vt 0.561876 0.523024
vt 0.760962 0.538533
vt 0.788440 0.580782
vt 0.747326 0.713814
vt 0.788440 0.580782
vt 0.810142 0.575983
vt 0.855643 0.677025
vt 0.783046 0.719512
vt 0.747326 0.713814
vt 0.310078 0.414304
vt 0.337635 0.466060
vt 0.368945 0.577060
vt 0.258895 0.741079
vt 0.027899 0.504120
vt 0.053618 0.399221
vt 0.725452 0.745237
vt 0.650532 0.758619
vt 0.747326 0.713814
vt 0.519913 0.337589
vt 0.389847 0.341047
vt 0.375615 0.239304
vt 0.523225 0.210870
vt 0.568986 0.266734
vt 0.531806 0.328785
vt 0.842595 0.437130
vt 0.861649 0.365890
vt 0.869467 0.457262
vt 0.181514 0.323246
vt 0.111414 0.191446
vt 0.184464 0.092013
vt 0.502804 0.054399
vt 0.547631 0.166170
vt 0.523225 0.210870
vt 0.375615 0.239304
vt 0.861649 0.365890
vt 0.818418 0.285626
vt 0.869467 0.344027
vt 0.184464 0.092013
vt 0.111414 0.191446
vt 0.092017 0.180622
vt 0.144791 0.080318
vt 0.471895 0.449464
vt 0.464873 0.440059
vt 0.519247 0.401915
vt 0.760962 0.538533
vt 0.561876 0.523024
vt 0.650532 0.758619
vt 0.258895 0.741079
vt 0.368945 0.577060
vt 0.474465 0.614649
vt 0.747326 0.713814
vt 0.027899 0.504120
vt 0.000120 0.492890
vt 0.053618 0.399221
vt 0.345471 0.400831
vt 0.362807 0.399397
vt 0.322416 0.410203
vt 0.523225 0.210870
vt 0.547631 0.166170
vt 0.646656 0.245987
vt 0.605249 0.261526
vt 0.568986 0.266734
vt 0.818418 0.285626
vt 0.646656 0.245987
vt 0.547631 0.166170
vt 0.502804 0.054399
vt 0.654265 0.000120
vt 0.294677 0.814608
vt 0.250273 0.758859
vt 0.518227 0.811233
vt 0.569018 0.838438
vt 0.518336 0.899976
vt 0.310078 0.414304
vt 0.322416 0.410203
vt 0.337635 0.466060
vt 0.322416 0.410203
vt 0.362807 0.399397
vt 0.417543 0.436791
vt 0.471895 0.449464
vt 0.561876 0.523024
vt 0.474465 0.614649
vt 0.368945 0.577060
vt 0.337635 0.466060
vt 0.181514 0.323246
vt 0.375615 0.239304
vt 0.389847 0.341047
vt 0.362807 0.399397
vt 0.345471 0.400831
vt 0.316799 0.400245
vn -0.5182 -0.5658 -0.6413
vn -0.7361 -0.6682 0.1079
vn 0.7997 -0.2691 -0.5366
vn -0.5008 -0.1970 -0.8428
vn 0.9044 0.4225 0.0583
vn 0.4639 0.8845 0.0495
vn 0.4353 0.7205 0.5397
vn -0.1923 0.1560 0.9688
vn 0.2648 0.9640 -0.0233
vn -0.2897 -0.9471 0.1378
vn -0.5090 -0.8057 -0.3027
vn 0.2091 0.0825 -0.9744
vn 0.8846 0.2409 -0.3994
vn 0.0241 0.6264 -0.7791
vn -0.5889 0.6949 -0.4125
vn -0.3845 0.2457 -0.8898
vn -0.9174 0.1642 0.3623
vn -0.6910 0.6592 -0.2966
vn 0.9739 0.0553 0.2199
vn 0.1775 -0.3819 -0.9070
vn 0.6441 -0.5416 0.5401
vn 0.2547 -0.7960 -0.5491
vn -0.1010 -0.6312 0.7690
vn 0.5435 0.7480 -0.3808
vn -0.9524 0.2528 -0.1705
vn -0.4797 -0.5488 0.6847
vn 0.4009 0.7778 0.4840
vn 0.8436 -0.5300 -0.0868
vn 0.2171 -0.9468 -0.2373
vn -0.8235 -0.4953 -0.2766
vn -0.6424 0.7072 0.2951
vn -0.3279 0.9415 -0.0782
vn 0.7755 0.0926 0.6245
usemtl None
s 1
f 112/1/1 109/2/1 107/3/1 115/4/1 131/5/1 133/6/1
f 138/7/2 121/8/2 119/9/2 154/10/2
f 130/11/3 126/12/3 102/13/3 128/14/3 147/15/3 135/16/3
f 108/17/4 110/18/4 104/19/4
f 58/20/5 55/21/5 91/22/5 94/23/5 60/24/5 61/25/5
f 92/26/6 56/27/6 89/28/6
f 76/29/7 84/30/7 80/31/7
f 83/32/8 52/33/8 49/34/8 86/35/8 85/36/8 78/37/8
f 88/38/9 57/39/9 64/40/9
f 51/41/10 142/42/10 140/43/10 153/44/10 150/45/10 151/46/10
f 134/47/11 136/48/11 149/49/11 43/50/11 120/51/11 113/52/11
f 127/53/12 114/54/12 97/55/12 101/56/12
f 59/57/13 62/58/13 146/59/13 129/60/13 10/61/13 98/62/13 68/63/13
f 96/64/14 99/65/14 69/66/14
f 70/67/15 66/68/15 67/69/15 100/70/15 103/71/15
f 27/72/16 28/73/16 116/74/16 29/75/16 30/76/16
f 82/77/17 74/78/17 73/79/17 122/80/17 139/81/17 53/82/17
f 111/83/18 117/84/18 105/85/18
f 1/86/19 95/87/19 124/88/19 143/89/19 145/90/19 14/91/19
f 35/92/20 132/93/20 9/94/20
f 87/95/21 48/96/21 50/97/21 152/98/21 155/99/21 144/100/21 125/101/21
f 36/102/22 137/103/22 37/104/22
f 2/105/23 5/106/23 54/107/23 141/108/23
f 63/109/24 23/110/24 13/111/24 26/112/24 65/113/24
f 118/114/25 123/115/25 72/116/25 71/117/25 106/118/25
f 44/119/26 45/120/26 6/121/26
f 81/122/27 90/123/27 79/124/27
f 38/125/28 156/126/28 148/127/28 40/128/28 39/129/28
f 41/130/29 3/131/29 46/132/29 47/133/29 42/134/29
f 8/135/30 33/136/30 7/137/30 32/138/30 31/139/30
f 20/140/31 77/141/31 75/142/31
f 18/143/32 93/144/32 22/145/32 11/146/32 15/147/32 16/148/32 17/149/32 12/150/32
f 34/151/33 4/152/33 25/153/33 24/154/33 19/155/33 21/156/33
