# Blender v2.79 (sub 0) OBJ File: 'Rock.blend'
# www.blender.org
mtllib Rock.mtl
o Cube
v -0.921002 0.031597 -1.135132
v -1.378860 0.039076 0.278894
v -1.077993 0.041805 0.852107
v -1.074103 0.652436 -1.221375
v -1.090054 0.685170 -1.201475
v -1.579043 0.674703 0.325379
v -1.541652 0.752897 0.138651
v -0.545600 2.094864 -0.642221
v -0.499984 2.147401 -0.627502
v 0.782452 0.030898 -1.063776
v 0.578504 1.409990 -1.249654
v -1.026601 0.486116 1.247945
v -1.305317 0.888367 0.988636
v -0.416155 1.959416 1.009731
v 1.304486 0.035083 -0.177153
v -0.016410 0.043623 1.339523
v -0.339397 0.473587 1.551984
v 1.144477 0.041041 0.974260
v 0.244005 2.382536 -0.692138
v 0.651654 1.789433 -1.081376
v 0.895649 1.870281 -0.657804
v 0.671203 2.433740 -0.086628
v 0.087681 2.090118 1.184743
v 0.642767 2.386554 0.208724
v 0.749650 1.324378 1.429631
v 0.296175 1.267495 1.557365
v 0.680473 1.643638 1.331869
v 0.282605 1.871851 1.344504
vn -0.8410 0.4462 -0.3060
vn 0.2909 -0.2392 0.9264
vn -0.7657 0.6334 0.1119
vn 0.5646 0.6876 -0.4565
vn -0.9172 -0.2672 -0.2956
vn -0.2122 0.4301 -0.8775
vn -0.8445 -0.2985 0.4447
vn 0.0415 -0.1274 -0.9910
vn 0.8601 0.0589 -0.5067
vn -0.3310 -0.6061 0.7233
vn -0.0006 -1.0000 0.0051
vn 0.2177 0.3286 0.9191
vn -0.2892 0.9492 0.1238
vn 0.4472 0.7529 0.4830
vn -0.3815 0.2995 0.8745
vn 0.9596 0.2484 0.1321
usemtl Material
s off
f 8//1 5//1 7//1
f 25//2 26//2 17//2 16//2 18//2
f 13//3 14//3 9//3 8//3 7//3 6//3
f 19//4 22//4 21//4 20//4
f 7//5 5//5 4//5 1//5 2//5 6//5
f 20//6 11//6 4//6 5//6 8//6 9//6 19//6
f 12//7 13//7 6//7 2//7 3//7
f 4//8 11//8 10//8 1//8
f 21//9 15//9 10//9 11//9 20//9
f 12//10 3//10 16//10 17//10
f 15//11 18//11 16//11 3//11 2//11 1//11 10//11
f 26//12 25//12 27//12 28//12
f 24//13 22//13 19//13 9//13 14//13 23//13
f 28//14 27//14 24//14 23//14
f 17//15 26//15 28//15 23//15 14//15 13//15 12//15
f 21//16 22//16 24//16 27//16 25//16 18//16 15//16
