# Wavefront Obj file
# 
# verts: 92 uv-s: 174
mtllib Bookie.mtl

g Pages

v -116.817047 89.564125 -171.387772
v 112.807274 89.820313 -171.964722
v -116.922325 89.321228 174.179092
v 112.807274 89.820313 174.779480
v -117.051323 27.850063 173.462753
v 111.716316 27.948809 174.403442
v -117.139786 27.956591 -171.508545
v 111.076973 27.763790 -172.045731
# 8 positions

vt 0.005000 0.305351
vt 0.204008 0.347263
vt 0.267926 0.047951
vt 0.069044 0.005000
vt 0.392347 0.005967
vt 0.337548 0.005000
vt 0.337989 0.208467
vt 0.392436 0.208583
vt 0.173970 0.992327
vt 0.228534 0.992769
vt 0.230500 0.687242
vt 0.176061 0.686274
vt 0.236885 0.993129
vt 0.291660 0.995000
vt 0.304175 0.688413
vt 0.249233 0.686274
vt 0.274633 0.208659
vt 0.329596 0.207127
vt 0.329425 0.005000
vt 0.274860 0.005286
vt 0.238682 0.317602
vt 0.386338 0.585087
vt 0.563499 0.487776
vt 0.415637 0.218909
# 24 texture coordinates

vn -0.577142 0.578440 -0.576467
vn 0.583914 0.572620 -0.575457
vn -0.576726 0.575707 0.579611
vn 0.582830 0.568732 0.580390
vn -0.580257 -0.578608 0.573162
vn 0.570115 -0.585849 0.575978
vn -0.579284 -0.576060 -0.576702
vn 0.568375 -0.582556 -0.581015
# 8 normals

usemtl Default
f 2/1/2 1/2/1 3/3/3 4/4/4
f 6/5/6 4/6/4 3/7/3 5/8/5
f 1/9/1 7/10/7 5/11/5 3/12/3
f 4/13/4 6/14/6 8/15/8 2/16/2
f 2/17/2 8/18/8 7/19/7 1/20/1
f 5/21/5 7/22/7 8/23/8 6/24/6

g Book

v -85.465088 102.999313 -144.146790
v 85.835327 102.285316 -144.146790
v 86.573677 102.218895 146.768555
v -81.773247 102.784653 147.506912
v -91.265739 101.891090 -152.959503
v 97.649109 99.602493 -152.268799
v 97.649109 99.768478 154.152191
v -91.372009 101.538284 157.844009
v 117.243729 98.317085 -174.019089
v -109.513512 101.795547 -177.594864
v 116.212311 97.886375 171.309723
v -110.946075 103.050873 176.604355
v -116.848938 99.854652 -176.830795
v -115.820923 100.951378 176.527985
v -127.137154 96.192017 -177.198044
v -126.228989 96.724297 179.777130
v -129.031525 84.403008 -167.665405
v -128.609482 30.543175 -165.553253
v -128.324463 31.247215 163.942245
v -128.074493 86.741776 169.441452
v -127.318604 18.281330 -177.199554
v -126.469528 19.178270 178.365356
v -119.121811 17.214859 178.223526
v -119.867249 17.687908 -179.081955
v -83.697853 103.557335 -2.094394
v 117.768150 90.378777 -173.492767
v 116.768204 89.414574 173.179672
v -108.233047 13.469054 175.334305
v -111.035454 92.642342 179.773102
v -108.156212 90.932816 -178.162338
v -107.782959 24.989807 176.653442
v 115.303123 26.066570 173.979660
v 116.402702 26.459698 -173.593506
v -112.765297 27.023390 -173.987076
v 113.337128 17.940599 173.570862
v 112.939728 17.621408 -173.594818
v -112.429764 14.372005 -177.606873
v -126.865723 58.222900 166.553192
v -127.815964 56.729507 -166.523132
v -127.370415 56.269363 -178.789948
v -119.282211 56.043526 -181.561584
v -116.136612 55.552105 -166.757950
v -116.306114 56.991123 179.699356
v -117.248672 56.997650 182.589783
v -126.236221 56.731850 182.231842
v -115.587036 34.349651 -170.445099
v -114.096489 33.116474 174.009308
v -118.284714 27.504112 181.376617
v -126.531837 29.880648 179.541885
v -127.258026 38.979115 164.666748
v -127.918503 38.047001 -165.815720
v -127.620949 29.053869 -177.809311
v -119.492653 28.202915 -180.740234
v -116.019287 92.495453 181.847672
v -114.081352 86.207695 177.149475
v -113.105186 84.304634 -172.671356
v -117.910675 89.582764 -181.729950
v -128.099731 88.727135 -177.962723
v -128.575775 78.975403 -167.433746
v -127.645576 81.149536 168.868729
v -126.747803 89.128326 180.567200
v 86.205460 102.387253 -2.452480
v 97.657593 99.786179 -3.022205
v 122.180649 97.897163 -1.600036
v 122.852997 89.660461 -3.718503
v -107.384148 89.819580 -3.768692
v -113.819672 85.300255 -2.288648
v -117.110016 56.276073 1.970248
v -115.708237 33.572567 -2.720114
v -109.150475 27.266354 -3.076179
v 117.432198 26.854401 -4.206103
v 117.862198 17.921513 -4.515359
v -110.341362 13.727983 -5.794823
v -119.459351 16.434380 -5.132682
v -126.247513 19.056984 -4.020572
v -127.746338 30.882246 -5.071772
v -127.127052 38.481552 -4.852052
v -126.868111 57.461567 -4.294992
v -127.281776 80.058403 -3.638626
v -127.949638 85.518372 -3.477439
v -126.527336 96.353653 -3.330458
v -116.659302 100.387428 -5.519148
v -113.678078 101.909935 -5.136121
v -91.310547 101.452553 -1.576580
# 84 positions

vt 0.578950 0.193953
vt 0.453455 0.193625
vt 0.453455 0.041908
vt 0.579267 0.043473
vt 0.446261 0.204088
vt 0.445650 0.036770
vt 0.711112 0.194279
vt 0.711766 0.045178
vt 0.720921 0.036676
vt 0.717651 0.204088
vt 0.578446 0.204095
vt 0.579726 0.036731
vt 0.426998 0.221442
vt 0.423831 0.020609
vt 0.732847 0.220529
vt 0.579705 0.225815
vt 0.576573 0.016920
vt 0.737537 0.019340
vt 0.576234 0.014280
vt 0.737469 0.015023
vt 0.578173 0.005540
vt 0.740347 0.005804
vt 0.851104 0.754902
vt 0.850663 0.604763
vt 0.833620 0.603092
vt 0.834294 0.754408
vt 0.806603 0.908222
vt 0.835350 0.908955
vt 0.834943 0.898090
vt 0.815240 0.898897
vt 0.813314 0.601041
vt 0.834940 0.589206
vt 0.806247 0.590680
vt 0.809445 0.753684
vt 0.808361 0.600534
vt 0.799520 0.591380
vt 0.799848 0.753554
vt 0.868308 0.754165
vt 0.868201 0.592630
vt 0.857512 0.605405
vt 0.857835 0.755096
vt 0.005000 0.418938
vt 0.005453 0.390245
vt 0.013413 0.390481
vt 0.014502 0.421920
vt 0.233508 0.380721
vt 0.234723 0.410425
vt 0.241887 0.410225
vt 0.242533 0.381478
vt 0.224869 0.379525
vt 0.226071 0.369904
vt 0.025238 0.372985
vt 0.024773 0.380016
vt 0.336073 0.664618
vt 0.336063 0.817761
vt 0.328560 0.819417
vt 0.328778 0.662742
vt 0.018995 0.431269
vt 0.018916 0.422050
vt 0.220676 0.419192
vt 0.220184 0.426695
vt 0.167514 0.474162
vt 0.010840 0.479551
vt 0.005000 0.681312
vt 0.167559 0.678078
vt 0.634522 0.543873
vt 0.793704 0.545085
vt 0.791336 0.742667
vt 0.633521 0.744552
vt 0.351118 0.688898
vt 0.350420 0.846713
vt 0.343223 0.846351
vt 0.343207 0.688624
vt 0.217638 0.355889
vt 0.219379 0.363086
vt 0.021797 0.362132
vt 0.021398 0.351928
vt 0.014678 0.429409
vt 0.011754 0.355246
vt 0.016218 0.416351
vt 0.005000 0.438710
vt 0.008067 0.446538
vt 0.207671 0.449416
vt 0.207969 0.438211
vt 0.214259 0.446479
vt 0.232568 0.371623
vt 0.470248 0.588241
vt 0.444783 0.593478
vt 0.445219 0.580367
vt 0.474923 0.580218
vt 0.471131 0.739145
vt 0.471934 0.898069
vt 0.446058 0.900328
vt 0.445425 0.742917
vt 0.713430 0.233290
vt 0.555704 0.237297
vt 0.554142 0.433537
vt 0.714564 0.435404
vt 0.551583 0.443181
vt 0.713977 0.443480
vt 0.551457 0.449689
vt 0.712992 0.449492
vt 0.814281 0.753827
vt 0.851489 0.897464
vt 0.859454 0.908086
vt 0.242109 0.434330
vt 0.234910 0.435083
vt 0.420561 0.581095
vt 0.426005 0.590213
vt 0.425316 0.738763
vt 0.424913 0.895288
vt 0.417715 0.897630
vt 0.419731 0.738448
vt 0.446063 0.902888
vt 0.419942 0.901813
vt 0.012496 0.364359
vt 0.005191 0.366464
vt 0.858722 0.591588
vt 0.016205 0.369330
vt 0.005247 0.356985
vt 0.868995 0.907546
vt 0.858135 0.897231
vt 0.235241 0.444396
vt 0.241841 0.443871
vt 0.419516 0.587076
vt 0.411248 0.582563
vt 0.477503 0.902230
vt 0.007324 0.684010
vt 0.166248 0.683778
vt 0.229252 0.385395
vt 0.241680 0.374867
vt 0.810433 0.899102
vt 0.799991 0.907545
vt 0.005460 0.425666
vt 0.329414 0.512377
vt 0.336445 0.511911
vt 0.322015 0.678762
vt 0.317879 0.478666
vt 0.476119 0.583378
vt 0.475133 0.737834
vt 0.483499 0.743641
vt 0.483150 0.540672
vt 0.342941 0.538874
vt 0.350768 0.538875
vt 0.866733 0.437254
vt 0.863180 0.237649
vt 0.868040 0.443841
vt 0.866373 0.450441
vt 0.424507 0.014112
vt 0.424182 0.005000
# 150 texture coordinates

vn -0.092318 0.992903 -0.074974
vn 0.082087 0.992663 -0.088783
vn 0.080974 0.993170 0.084000
vn -0.067657 0.994657 0.077979
vn -0.012435 0.998958 -0.043911
vn 0.067920 0.997159 -0.032558
vn 0.073724 0.996964 0.025071
vn 0.001853 0.999569 0.029310
vn 0.545808 0.594911 -0.590063
vn -0.137445 0.713616 -0.686921
vn 0.572069 0.652224 0.497333
vn -0.154843 0.805601 0.571866
vn -0.251547 0.726530 -0.639436
vn -0.273536 0.780626 0.561962
vn -0.668230 0.564128 -0.485004
vn -0.614757 0.564251 0.551086
vn -0.998697 0.044318 -0.025314
vn -0.999511 -0.015302 -0.027259
vn -0.999164 -0.011216 0.039311
vn -0.998205 0.039440 0.045070
vn -0.696365 -0.556876 -0.452730
vn -0.674354 -0.520885 0.523379
vn -0.114302 -0.694506 0.710349
vn -0.066314 -0.573025 -0.816851
vn -0.103976 0.994579 0.001238
vn 0.610849 -0.547309 -0.572116
vn 0.590039 -0.489534 0.642035
vn -0.051833 -0.793524 0.606328
vn 0.365480 -0.357615 0.859381
vn 0.259231 -0.522040 -0.812572
vn 0.376305 0.473311 0.796474
vn 0.625993 0.545726 0.557060
vn 0.628511 0.606664 -0.486758
vn 0.502356 0.551250 -0.666155
vn 0.528941 -0.610098 0.589917
vn 0.533664 -0.525800 -0.662372
vn -0.053662 -0.699235 -0.712875
vn -0.999616 -0.006429 0.026943
vn -0.999792 -0.009516 -0.018035
vn -0.797510 -0.010423 -0.603216
vn 0.432661 -0.033956 -0.900917
vn 0.990270 -0.034765 -0.134748
vn 0.973379 -0.024567 0.227883
vn 0.492678 -0.028167 0.869756
vn -0.710089 -0.014318 0.703966
vn 0.952960 0.228419 -0.199231
vn 0.916169 0.240162 0.320868
vn 0.242205 -0.048159 0.969029
vn -0.727212 -0.056632 0.684073
vn -0.998516 0.041019 0.035814
vn -0.999359 0.028535 -0.021607
vn -0.792825 -0.028831 -0.608767
vn 0.306073 0.032488 -0.951454
vn 0.234714 0.159535 0.958884
vn 0.934310 -0.241209 0.262457
vn 0.893758 -0.350366 -0.280071
vn 0.163220 0.033074 -0.986035
vn -0.786691 0.108624 -0.607716
vn -0.998989 -0.037582 -0.024679
vn -0.998477 -0.039938 0.038072
vn -0.704542 0.105754 0.701738
vn 0.113241 0.993568 -0.000030
vn 0.149721 0.988728 0.000063
vn 0.715500 0.698591 0.005607
vn 0.738135 -0.674652 -0.001100
vn 0.390054 -0.920784 0.003903
vn 0.910610 -0.413228 0.005622
vn 0.999829 -0.018509 -0.000278
vn 0.934876 0.354962 -0.002858
vn 0.436250 0.899825 -0.000614
vn 0.752390 0.658710 0.003321
vn 0.671380 -0.741114 -0.000410
vn -0.155768 -0.987794 -0.000353
vn -0.292130 -0.956378 0.000690
vn -0.755581 -0.655053 0.001785
vn -0.999879 -0.015448 0.001822
vn -0.998442 0.055771 0.001861
vn -0.999976 -0.006358 0.002765
vn -0.997979 -0.063455 0.003320
vn -0.999674 0.025363 0.002821
vn -0.782250 0.622965 0.000539
vn -0.365611 0.930765 -0.002061
vn -0.179819 0.983698 -0.001946
vn -0.091511 0.995804 0.000264
# 84 normals

usemtl Default
f 70/25/70 10/26/10 9/27/9 33/28/33
f 10/26/10 14/29/14 13/30/13 9/27/9
f 11/31/11 12/32/12 16/33/16 15/34/15
f 70/25/70 11/31/11 15/34/15 71/35/71
f 92/36/92 16/33/16 12/32/12 33/28/33
f 14/29/14 17/37/17 18/38/18 13/30/13
f 71/35/71 15/34/15 19/39/19 72/40/72
f 91/41/91 20/42/20 16/33/16 92/36/92
f 15/34/15 16/33/16 20/42/20 19/39/19
f 90/43/90 22/44/22 20/42/20 91/41/91
f 89/45/89 24/46/24 22/44/22 90/43/90
f 85/47/85 58/48/58 46/49/46 86/50/86
f 66/51/66 48/52/48 47/53/47 67/54/67
f 68/55/68 46/49/46 53/56/53 69/57/69
f 88/58/88 28/59/28 24/60/24 89/61/89
f 83/62/83 30/63/30 27/64/27 84/65/84
f 69/66/69 53/67/53 52/68/52 62/69/62
f 65/70/65 49/71/49 48/72/48 66/73/66
f 38/74/38 18/75/18 17/76/17 34/77/34
f 72/78/72 19/79/19 35/80/35 73/81/73
f 20/82/20 37/83/37 35/84/35 19/85/19
f 73/86/73 35/87/35 37/88/37 74/89/74
f 78/90/78 39/91/39 40/92/40 79/93/79
f 79/94/79 40/95/40 43/96/43 80/97/80
f 43/98/43 40/99/40 39/100/39 36/101/36
f 37/83/37 20/82/20 22/102/22
f 36/101/36 39/100/39 31/103/31
f 63/104/63 37/83/37 22/102/22 62/69/62
f 41/105/41 44/106/44 45/107/45 42/108/42
f 45/107/45 32/109/32 42/108/42
f 21/110/21 18/75/18 38/74/38
f 64/111/64 50/112/50 49/113/49 65/114/65
f 75/115/75 63/116/63 51/117/51 76/118/76
f 80/119/80 43/120/43 36/121/36 81/122/81
f 81/122/81 36/121/36 31/123/31 82/124/82
f 82/124/82 31/123/31 30/125/30 83/126/83
f 86/50/86 46/49/46 68/55/68 87/127/87
f 59/128/59 47/53/47 48/52/48 60/129/60
f 60/130/60 48/72/48 49/71/49 61/131/61
f 61/132/61 49/113/49 50/112/50 54/133/54
f 77/134/77 55/135/55 39/136/39 78/137/78
f 55/135/55 51/117/51 52/138/52 56/139/56
f 56/140/56 52/68/52 53/67/53 57/141/57
f 57/142/57 53/56/53 46/49/46 58/48/58
f 76/118/76 51/117/51 55/135/55 77/134/77
f 56/140/56 31/103/31 39/100/39 55/143/55
f 57/141/57 30/144/30 31/103/31 56/140/56
f 58/48/58 27/64/27 30/63/30 57/142/57
f 84/65/84 27/64/27 58/48/58 85/47/85
f 60/129/60 29/145/29 26/146/26 59/128/59
f 61/131/61 32/147/32 29/148/29 60/130/60
f 54/133/54 42/149/42 32/150/32 61/132/61
f 62/151/62 52/138/52 51/117/51 63/116/63
f 74/89/74 37/88/37 63/152/63 75/153/75
f 65/70/65 21/110/21 38/74/38 64/154/64
f 66/73/66 23/155/23 21/110/21 65/70/65
f 67/54/67 25/156/25 23/157/23 66/51/66
f 87/127/87 68/55/68 28/59/28 88/58/88
f 69/57/69 24/60/24 28/59/28 68/55/68
f 62/69/62 22/102/22 24/158/24 69/66/69
f 33/28/33 12/32/12 11/31/11 70/25/70
f 71/35/71 14/29/14 10/26/10 70/25/70
f 72/40/72 17/37/17 14/29/14 71/35/71
f 73/81/73 34/159/34 17/160/17 72/78/72
f 74/89/74 38/161/38 34/162/34 73/86/73
f 75/115/75 64/111/64 38/163/38 74/164/74
f 76/118/76 50/112/50 64/111/64 75/115/75
f 77/134/77 54/133/54 50/112/50 76/118/76
f 78/137/78 42/149/42 54/133/54 77/134/77
f 79/93/79 41/165/41 42/166/42 78/90/78
f 80/97/80 44/167/44 41/168/41 79/94/79
f 81/122/81 45/169/45 44/170/44 80/119/80
f 82/124/82 32/171/32 45/169/45 81/122/81
f 83/126/83 29/172/29 32/171/32 82/124/82
f 84/65/84 26/146/26 29/145/29 83/62/83
f 85/47/85 59/128/59 26/146/26 84/65/84
f 86/50/86 47/53/47 59/128/59 85/47/85
f 87/127/87 67/54/67 47/53/47 86/50/86
f 88/58/88 25/156/25 67/54/67 87/127/87
f 89/61/89 23/157/23 25/156/25 88/58/88
f 90/43/90 21/173/21 23/174/23 89/45/89
f 91/41/91 18/38/18 21/173/21 90/43/90
f 92/36/92 13/30/13 18/38/18 91/41/91
f 33/28/33 9/27/9 13/30/13 92/36/92

# 90 faces
