# Blender v2.79 (sub 0) OBJ File: 'Rock3.blend'
# www.blender.org
mtllib Rock3.mtl
o LowPolyRock
v 0.581888 0.288475 0.851221
v 0.692255 0.670184 -0.155556
v -0.021649 0.453087 1.885326
v -0.073430 0.485369 1.882759
v -0.361004 0.429886 -1.543944
v -0.027433 0.419805 -2.039773
v 0.292956 1.107533 0.467420
v 0.161733 1.147035 1.183406
v 0.218579 0.994437 1.495237
v 0.578114 0.915578 -0.141470
v -0.387296 1.094802 0.708977
v -0.362882 1.105325 1.073245
v 0.113887 1.074900 -0.354752
v 0.003661 1.027362 -0.924925
v -0.050060 1.068468 -0.712986
v -0.051060 0.858277 -1.474281
v -0.575148 0.864145 -0.328695
v -0.648193 0.864866 0.094803
v -0.256604 1.127204 1.037401
v 0.004258 1.113539 1.200084
v 0.124421 0.848122 1.651119
v 0.270901 1.189256 -0.001441
v 0.381116 1.115160 0.722015
v 0.487265 0.991181 0.222930
v 0.529944 1.013554 0.615336
v 0.547341 0.433948 -1.254931
v 0.371085 0.633272 -1.591785
v 0.119341 0.493132 -1.943576
v 0.172548 0.629428 -1.901639
v -0.137184 0.416498 -1.873437
v -0.578492 0.560673 -1.343668
v -0.679872 0.295102 0.317352
v -0.558587 0.671374 1.163931
v 0.008263 0.445419 1.907849
v 0.051060 0.460974 1.923660
v 0.400090 0.477556 1.697263
v 0.033667 0.457695 -2.026466
v 0.001560 0.360801 -2.044980
v -0.034241 0.346292 -2.044913
v -0.655140 0.519968 -1.167338
v -0.517089 0.411769 -1.342593
v -0.578084 0.303532 1.316884
v -0.260818 0.328730 1.715109
v -0.570613 0.152707 1.028097
v 0.135221 0.493464 1.925627
v 0.243119 0.476725 1.826455
v 0.398984 0.369470 1.619688
v 0.056027 0.424441 1.875265
v 0.701508 0.538572 -0.189379
v 0.656015 0.213108 0.007396
v 0.737080 0.313165 -0.270691
v 0.685073 0.261146 -0.471205
v 0.622153 0.161728 -0.659582
v 0.593135 0.158144 0.379647
v 0.075508 -0.000087 -1.428120
v 0.075259 0.058216 -1.629249
v -0.031775 -0.147025 -1.221077
v -0.088248 -0.102862 -1.006668
v -0.093944 -0.091249 -1.259365
v -0.310426 0.006522 -0.923807
v -0.615803 0.154702 -0.455445
v -0.338471 -0.010331 0.883184
v 0.489807 0.011253 -0.624613
v 0.418279 -0.132094 0.087366
v 0.198975 -0.191747 0.237012
v 0.103748 0.069545 1.658368
v 0.018941 0.001323 1.418085
v 0.068605 0.040252 1.605500
v -0.007164 -0.136284 1.108590
v 0.099829 -0.032743 1.272726
v 0.172548 0.629428 -1.901639
v 0.172548 0.629428 -1.901639
v 0.172548 0.629428 -1.901639
v 0.119341 0.493132 -1.943576
v 0.161733 1.147035 1.183406
v 0.161733 1.147035 1.183406
v 0.218579 0.994437 1.495237
v 0.218579 0.994437 1.495237
v -0.387296 1.094802 0.708977
v -0.387296 1.094802 0.708977
v -0.387296 1.094802 0.708977
v -0.362882 1.105325 1.073245
v -0.362882 1.105325 1.073245
v -0.362882 1.105325 1.073245
v 0.113887 1.074900 -0.354752
v 0.113887 1.074900 -0.354752
v 0.003661 1.027362 -0.924925
v 0.003661 1.027362 -0.924925
v 0.270901 1.189256 -0.001441
v 0.270901 1.189256 -0.001441
v -0.050060 1.068468 -0.712986
v -0.050060 1.068468 -0.712986
v -0.051060 0.858277 -1.474281
v -0.051060 0.858277 -1.474281
v -0.575148 0.864145 -0.328695
v -0.575148 0.864145 -0.328695
v -0.648193 0.864866 0.094803
v -0.648193 0.864866 0.094803
v -0.558587 0.671374 1.163931
v -0.558587 0.671374 1.163931
v -0.256604 1.127204 1.037401
v -0.256604 1.127204 1.037401
v 0.004258 1.113539 1.200084
v 0.004258 1.113539 1.200084
v 0.124421 0.848122 1.651119
v 0.124421 0.848122 1.651119
v -0.073430 0.485369 1.882759
v -0.073430 0.485369 1.882759
v -0.073430 0.485369 1.882759
v -0.073430 0.485369 1.882759
v -0.073430 0.485369 1.882759
v 0.578114 0.915578 -0.141470
v 0.578114 0.915578 -0.141470
v 0.381116 1.115160 0.722015
v 0.381116 1.115160 0.722015
v 0.292956 1.107533 0.467420
v 0.292956 1.107533 0.467420
v 0.487265 0.991181 0.222930
v 0.487265 0.991181 0.222930
v 0.529944 1.013554 0.615336
v 0.529944 1.013554 0.615336
v 0.529944 1.013554 0.615336
v 0.692255 0.670184 -0.155556
v 0.547341 0.433948 -1.254931
v 0.547341 0.433948 -1.254931
v 0.547341 0.433948 -1.254931
v 0.547341 0.433948 -1.254931
v 0.371085 0.633272 -1.591785
v 0.371085 0.633272 -1.591785
v 0.701508 0.538572 -0.189379
v 0.701508 0.538572 -0.189379
v -0.578492 0.560673 -1.343668
v -0.578492 0.560673 -1.343668
v -0.578492 0.560673 -1.343668
v -0.027433 0.419805 -2.039773
v -0.027433 0.419805 -2.039773
v -0.137184 0.416498 -1.873437
v -0.137184 0.416498 -1.873437
v -0.137184 0.416498 -1.873437
v -0.137184 0.416498 -1.873437
v -0.034241 0.346292 -2.044913
v -0.034241 0.346292 -2.044913
v -0.034241 0.346292 -2.044913
v -0.361004 0.429886 -1.543944
v -0.361004 0.429886 -1.543944
v -0.655140 0.519968 -1.167338
v -0.655140 0.519968 -1.167338
v -0.655140 0.519968 -1.167338
v -0.021649 0.453087 1.885326
v -0.021649 0.453087 1.885326
v -0.021649 0.453087 1.885326
v 0.008263 0.445419 1.907849
v 0.008263 0.445419 1.907849
v 0.008263 0.445419 1.907849
v 0.051060 0.460974 1.923660
v 0.051060 0.460974 1.923660
v 0.398984 0.369470 1.619688
v 0.398984 0.369470 1.619688
v 0.400090 0.477556 1.697263
v 0.400090 0.477556 1.697263
v 0.400090 0.477556 1.697263
v 0.243119 0.476725 1.826455
v 0.243119 0.476725 1.826455
v 0.581888 0.288475 0.851221
v 0.581888 0.288475 0.851221
v 0.033667 0.457695 -2.026466
v 0.033667 0.457695 -2.026466
v 0.033667 0.457695 -2.026466
v 0.001560 0.360801 -2.044980
v 0.001560 0.360801 -2.044980
v -0.517089 0.411769 -1.342593
v -0.517089 0.411769 -1.342593
v -0.578084 0.303532 1.316884
v -0.578084 0.303532 1.316884
v -0.260818 0.328730 1.715109
v -0.260818 0.328730 1.715109
v -0.679872 0.295102 0.317352
v -0.570613 0.152707 1.028097
v -0.570613 0.152707 1.028097
v 0.135221 0.493464 1.925627
v 0.135221 0.493464 1.925627
v 0.056027 0.424441 1.875265
v 0.056027 0.424441 1.875265
v 0.056027 0.424441 1.875265
v 0.103748 0.069545 1.658368
v 0.103748 0.069545 1.658368
v 0.103748 0.069545 1.658368
v 0.685073 0.261146 -0.471205
v 0.685073 0.261146 -0.471205
v 0.656015 0.213108 0.007396
v 0.656015 0.213108 0.007396
v 0.737080 0.313165 -0.270691
v 0.737080 0.313165 -0.270691
v 0.622153 0.161728 -0.659582
v 0.622153 0.161728 -0.659582
v 0.593135 0.158144 0.379647
v 0.593135 0.158144 0.379647
v 0.075259 0.058216 -1.629249
v 0.075259 0.058216 -1.629249
v 0.075259 0.058216 -1.629249
v 0.075259 0.058216 -1.629249
v 0.075508 -0.000087 -1.428120
v 0.075508 -0.000087 -1.428120
v 0.489807 0.011253 -0.624613
v 0.489807 0.011253 -0.624613
v -0.031775 -0.147025 -1.221077
v -0.031775 -0.147025 -1.221077
v -0.031775 -0.147025 -1.221077
v -0.093944 -0.091249 -1.259365
v -0.093944 -0.091249 -1.259365
v -0.093944 -0.091249 -1.259365
v -0.093944 -0.091249 -1.259365
v -0.088248 -0.102862 -1.006668
v -0.088248 -0.102862 -1.006668
v -0.310426 0.006522 -0.923807
v -0.310426 0.006522 -0.923807
v -0.615803 0.154702 -0.455445
v -0.615803 0.154702 -0.455445
v -0.338471 -0.010331 0.883184
v -0.338471 -0.010331 0.883184
v 0.198975 -0.191747 0.237012
v 0.198975 -0.191747 0.237012
v 0.418279 -0.132094 0.087366
v 0.418279 -0.132094 0.087366
v 0.018941 0.001323 1.418085
v 0.018941 0.001323 1.418085
v 0.068605 0.040252 1.605500
v 0.068605 0.040252 1.605500
v 0.068605 0.040252 1.605500
v -0.007164 -0.136284 1.108590
v -0.007164 -0.136284 1.108590
v -0.007164 -0.136284 1.108590
v 0.099829 -0.032743 1.272726
v 0.099829 -0.032743 1.272726
vt 0.593623 0.430381
vt 0.547112 0.435666
vt 0.478586 0.391638
vt 0.216235 0.356980
vt 0.206262 0.334316
vt 0.290368 0.304360
vt 0.332935 0.326260
vt 0.411235 0.352704
vt 0.478586 0.391638
vt 0.547112 0.435666
vt 0.446395 0.543233
vt 0.356855 0.534465
vt 0.255113 0.443798
vt 0.507416 0.179885
vt 0.549788 0.181534
vt 0.692718 0.267816
vt 0.479702 0.218512
vt 0.813836 0.174902
vt 0.847724 0.214804
vt 0.692718 0.267816
vt 0.595384 0.173368
vt 0.606225 0.128191
vt 0.795767 0.112596
vt 0.356855 0.534465
vt 0.150668 0.488674
vt 0.203574 0.415551
vt 0.255113 0.443798
vt 0.206262 0.334316
vt 0.216235 0.356980
vt 0.213286 0.400565
vt 0.203574 0.415551
vt 0.000134 0.379717
vt 0.091261 0.321930
vt 0.137285 0.303542
vt 0.203574 0.415551
vt 0.213286 0.400565
vt 0.255113 0.443798
vt 0.919198 0.023455
vt 0.887616 0.377104
vt 0.752400 0.339384
vt 0.692718 0.267816
vt 0.847724 0.214804
vt 0.950469 0.407427
vt 0.907768 0.000134
vt 0.744848 0.747739
vt 0.712943 0.706088
vt 0.754086 0.714631
vt 0.791522 0.768171
vt 0.801614 0.888911
vt 0.712549 0.880328
vt 0.643915 0.827562
vt 0.551173 0.748550
vt 0.712943 0.706088
vt 0.744848 0.747739
vt 0.860996 0.809251
vt 0.889534 0.829396
vt 0.454995 0.288508
vt 0.411235 0.352704
vt 0.332935 0.326260
vt 0.383883 0.293606
vt 0.454995 0.288508
vt 0.752400 0.339384
vt 0.830201 0.376220
vt 0.721953 0.448683
vt 0.593623 0.430381
vt 0.478586 0.391638
vt 0.411235 0.352704
vt 0.091823 0.274760
vt 0.016208 0.196095
vt 0.045503 0.184687
vt 0.061661 0.190510
vt 0.464941 0.240129
vt 0.479702 0.218512
vt 0.692718 0.267816
vt 0.752400 0.339384
vt 0.454995 0.288508
vt 0.383883 0.293606
vt 0.312162 0.275283
vt 0.091823 0.274760
vt 0.061661 0.190510
vt 0.085459 0.186587
vt 0.120607 0.186043
vt 0.137285 0.303542
vt 0.889534 0.829396
vt 0.860996 0.809251
vt 0.900739 0.820894
vt 0.643915 0.827562
vt 0.267096 0.792426
vt 0.240887 0.731467
vt 0.391823 0.706088
vt 0.551173 0.748550
vt 0.085714 0.849945
vt 0.016601 0.777687
vt 0.019206 0.764363
vt 0.082184 0.755428
vt 0.100295 0.848367
vt 0.595384 0.173368
vt 0.549788 0.181534
vt 0.507416 0.179885
vt 0.458512 0.141584
vt 0.381038 0.122350
vt 0.452172 0.047854
vt 0.606225 0.128191
vt 0.016601 0.777687
vt 0.010171 0.783287
vt 0.019206 0.764363
vt 0.010171 0.783287
vt 0.000134 0.787037
vt 0.019206 0.764363
vt 0.196571 0.000134
vt 0.408255 0.000134
vt 0.452172 0.047854
vt 0.381038 0.122350
vt 0.279270 0.143643
vt 0.130816 0.164186
vt 0.091183 0.089811
vt 0.098304 0.075288
vt 0.170007 0.041770
vt 0.771998 0.688287
vt 0.953494 0.527067
vt 0.965896 0.826378
vt 0.791522 0.768171
vt 0.754086 0.714631
vt 0.860996 0.809251
vt 0.082184 0.755428
vt 0.177255 0.709577
vt 0.240887 0.731467
vt 0.267096 0.792426
vt 0.213707 0.861633
vt 0.142705 0.848699
vt 0.100295 0.848367
vt 0.507416 0.179885
vt 0.479702 0.218512
vt 0.464941 0.240129
vt 0.312162 0.275283
vt 0.120607 0.186043
vt 0.130816 0.164186
vt 0.279270 0.143643
vt 0.458512 0.141584
vt 0.860996 0.809251
vt 0.744848 0.747739
vt 0.791522 0.768171
vt 0.284368 0.644159
vt 0.117087 0.596753
vt 0.080819 0.531483
vt 0.150668 0.488674
vt 0.356855 0.534465
vt 0.446395 0.543233
vt 0.645341 0.620770
vt 0.463271 0.705819
vt 0.213286 0.400565
vt 0.216235 0.356980
vt 0.255113 0.443798
vt 0.892680 0.503943
vt 0.849099 0.527567
vt 0.689236 0.599259
vt 0.721953 0.448683
vt 0.853915 0.433943
vt 0.889526 0.486033
vt 0.446395 0.543233
vt 0.547112 0.435666
vt 0.593623 0.430381
vt 0.721953 0.448683
vt 0.689236 0.599259
vt 0.645341 0.620770
vt 0.658920 0.881025
vt 0.704013 0.897244
vt 0.566547 0.999866
vt 0.418850 0.970171
vt 0.390913 0.921436
vt 0.016601 0.777687
vt 0.014244 0.795899
vt 0.010171 0.783287
vt 0.130816 0.164186
vt 0.120607 0.186043
vt 0.085459 0.186587
vt 0.049957 0.170646
vt 0.091183 0.089811
vt 0.895100 0.834294
vt 0.889534 0.829396
vt 0.900739 0.820894
vt 0.916196 0.825465
vt 0.595384 0.173368
vt 0.692718 0.267816
vt 0.549788 0.181534
vt 0.279270 0.143643
vt 0.381038 0.122350
vt 0.458512 0.141584
vt 0.312162 0.275283
vt 0.383883 0.293606
vt 0.332935 0.326260
vt 0.290368 0.304360
vt 0.801614 0.888911
vt 0.889534 0.829396
vt 0.895100 0.834294
vt 0.008949 0.444031
vt 0.000134 0.379717
vt 0.203574 0.415551
vt 0.150668 0.488674
vt 0.080819 0.531483
vt 0.704013 0.897244
vt 0.712549 0.880328
vt 0.760619 0.902409
vt 0.760619 0.902409
vt 0.712549 0.880328
vt 0.801614 0.888911
vt 0.658920 0.881025
vt 0.712549 0.880328
vt 0.704013 0.897244
vt 0.658920 0.881025
vt 0.390913 0.921436
vt 0.213707 0.861633
vt 0.267096 0.792426
vt 0.643915 0.827562
vt 0.712549 0.880328
vt 0.049957 0.170646
vt 0.085459 0.186587
vt 0.061661 0.190510
vt 0.045503 0.184687
vt 0.036572 0.177175
vt 0.016601 0.777687
vt 0.085714 0.849945
vt 0.014244 0.795899
vt 0.206262 0.334316
vt 0.137285 0.303542
vt 0.120607 0.186043
vt 0.312162 0.275283
vt 0.290368 0.304360
vt 0.213707 0.861633
vt 0.168973 0.873947
vt 0.142705 0.848699
vt 0.142705 0.848699
vt 0.168973 0.873947
vt 0.100295 0.848367
vn 0.2383 0.9629 -0.1263
vn -0.2123 0.9757 -0.0536
vn 0.9776 0.1187 -0.1739
vn 0.6646 -0.6759 -0.3186
vn -0.8621 0.4895 0.1310
vn -0.3229 0.7465 0.5818
vn -0.2063 0.9784 -0.0144
vn 0.7873 -0.3519 -0.5063
vn -0.7813 -0.3260 -0.5322
vn -0.6900 -0.6330 -0.3510
vn 0.6404 0.7658 0.0585
vn 0.4417 0.8589 -0.2592
vn -0.1845 0.5889 0.7869
vn 0.8936 0.4187 -0.1614
vn 0.5509 0.4804 0.6824
vn -0.8302 0.1150 -0.5455
vn -0.5809 -0.8140 0.0030
vn -0.2977 -0.5698 0.7659
vn 0.8077 -0.5896 -0.0002
vn -0.4989 -0.7683 0.4010
vn -0.3236 -0.0690 0.9437
vn 0.6336 -0.7426 0.2168
vn 0.7066 -0.0588 -0.7052
vn -0.7320 -0.4860 -0.4775
vn -0.4772 -0.7962 0.3719
vn 0.9843 0.0707 0.1618
vn -0.6998 0.5138 -0.4962
vn -0.9986 0.0467 0.0248
vn 0.1480 0.9767 -0.1552
vn -0.5032 0.6490 -0.5706
vn -0.5298 0.8150 -0.2345
vn 0.2207 -0.9716 -0.0856
vn -0.3299 -0.9364 0.1193
vn 0.4869 -0.4723 0.7348
vn 0.0696 0.1215 -0.9901
vn 0.9560 -0.2022 -0.2126
vn 0.9403 -0.3217 0.1113
vn 0.4341 0.8915 -0.1291
vn 0.3008 -0.7449 -0.5955
vn -0.7261 0.3627 0.5841
vn -0.2521 -0.7227 -0.6435
vn 0.2326 -0.9340 -0.2710
vn -0.6609 -0.7501 -0.0196
vn -0.3591 -0.9333 -0.0068
vn 0.3068 -0.7800 0.5454
vn -0.0852 -0.5279 0.8450
vn 0.7953 0.5300 0.2944
vn 0.2898 -0.8834 0.3683
vn -0.0316 -0.9769 0.2113
usemtl None
s 1
f 87/1/1 91/2/1 85/3/1
f 104/4/2 76/5/2 114/6/2 117/7/2 89/8/2 86/9/2 92/10/2 95/11/2 97/12/2 80/13/2
f 193/14/3 188/15/3 125/16/3 131/17/3
f 202/18/4 199/19/4 126/20/4 195/21/4 204/22/4 206/23/4
f 98/24/5 99/25/5 82/26/5 79/27/5
f 75/28/6 103/29/6 102/30/6 83/31/6 107/32/6 105/33/6 77/34/6
f 84/35/7 101/36/7 81/37/7
f 74/38/8 71/39/8 128/40/8 124/41/8 200/42/8 170/43/8 168/44/8
f 171/45/9 147/46/9 134/47/9 145/48/9
f 198/49/10 211/50/10 215/51/10 217/52/10 148/53/10 172/54/10 138/55/10 141/56/10
f 112/57/11 90/58/11 116/59/11 118/60/11
f 113/61/12 129/62/12 72/63/12 93/64/12 88/65/12 13/66/12 22/67/12
f 106/68/13 110/69/13 156/70/13 180/71/13
f 123/72/14 130/73/14 127/74/14 27/75/14 10/76/14 119/77/14 121/78/14
f 21/79/15 181/80/15 162/81/15 160/82/15 78/83/15
f 143/84/16 137/85/16 135/86/16
f 216/87/17 219/88/17 178/89/17 177/90/17 218/91/17
f 186/92/18 150/93/18 108/94/18 176/95/18 228/96/18
f 194/97/19 189/98/19 192/99/19 190/100/19 197/101/19 223/102/19 205/103/19
f 149/104/20 152/105/20 109/106/20
f 153/107/21 155/108/21 4/109/21
f 231/110/22 222/111/22 224/112/22 196/113/22 164/114/22 158/115/22 187/116/22 229/117/22 233/118/22
f 28/119/23 167/120/23 73/121/23
f 144/122/24 133/123/24 139/124/24
f 175/125/25 173/126/25 179/127/25 220/128/25 230/129/25 225/130/25 227/131/25
f 51/132/26 49/133/26 2/134/26 122/135/26 159/136/26 157/137/26 165/138/26 191/139/26
f 30/140/27 41/141/27 5/142/27
f 32/143/28 44/144/28 174/145/28 100/146/28 18/147/28 96/148/28 146/149/28 61/150/28
f 19/151/29 20/152/29 11/153/29
f 136/154/30 140/155/30 132/156/30 94/157/30 29/158/30 166/159/30
f 17/160/31 15/161/31 14/162/31 16/163/31 31/164/31 40/165/31
f 214/166/32 208/167/32 63/168/32 64/169/32 221/170/32
f 151/171/33 183/172/33 154/173/33
f 47/174/34 36/175/34 163/176/34 182/177/34 185/178/34
f 169/179/35 142/180/35 6/181/35 37/182/35
f 53/183/36 26/184/36 52/185/36
f 1/186/37 54/187/37 50/188/37
f 120/189/38 24/190/38 7/191/38 115/192/38
f 201/193/39 39/194/39 38/195/39
f 43/196/40 111/197/40 12/198/40 33/199/40 42/200/40
f 207/201/41 209/202/41 203/203/41
f 55/204/42 212/205/42 56/206/42
f 213/207/43 210/208/43 57/209/43
f 58/210/44 65/211/44 232/212/44 62/213/44 60/214/44 59/215/44
f 48/216/45 46/217/45 45/218/45 35/219/45 34/220/45
f 3/221/46 66/222/46 184/223/46
f 8/224/47 9/225/47 161/226/47 25/227/47 23/228/47
f 69/229/48 234/230/48 226/231/48
f 67/232/49 70/233/49 68/234/49
